STARTFONT 2.1
FONT -FontForge-Permanent Marker-Book-R-Normal--11-110-72-72-P-63-ISO10646-1
SIZE 11 72 72
FONTBOUNDINGBOX 17 15 -3 -3
COMMENT "Generated by fontforge, http://fontforge.sourceforge.net"
COMMENT "Copyright (c) 2010 by Font Diner, Inc. All rights reserved."
STARTPROPERTIES 39
FOUNDRY "FontForge"
FAMILY_NAME "Permanent Marker"
WEIGHT_NAME "Book"
SLANT "R"
SETWIDTH_NAME "Normal"
ADD_STYLE_NAME ""
PIXEL_SIZE 11
POINT_SIZE 110
RESOLUTION_X 72
RESOLUTION_Y 72
SPACING "P"
AVERAGE_WIDTH 63
CHARSET_REGISTRY "ISO10646"
CHARSET_ENCODING "1"
FONTNAME_REGISTRY ""
CHARSET_COLLECTIONS "ISO10646-1"
FONT_NAME "PermanentMarker-Regular"
FACE_NAME "Permanent Marker Regular"
COPYRIGHT "Copyright (c) 2010 by Font Diner, Inc. All rights reserved."
FONT_VERSION "1.001"
FONT_ASCENT 9
FONT_DESCENT 2
UNDERLINE_POSITION -1
UNDERLINE_THICKNESS 1
X_HEIGHT 5
CAP_HEIGHT 7
RAW_ASCENT 799
RAW_DESCENT 200
NORM_SPACE 4
RELATIVE_WEIGHT 40
RELATIVE_SETWIDTH 50
SUPERSCRIPT_X 0
SUPERSCRIPT_Y 5
SUPERSCRIPT_SIZE 6
SUBSCRIPT_X 0
SUBSCRIPT_Y 1
SUBSCRIPT_SIZE 6
AVG_LOWERCASE_WIDTH 61
AVG_UPPERCASE_WIDTH 75
ENDPROPERTIES
CHARS 230
STARTCHAR space
ENCODING 32
SWIDTH 370 0
DWIDTH 4 0
BBX 1 1 0 0
BITMAP
00
ENDCHAR
STARTCHAR exclam
ENCODING 33
SWIDTH 260 0
DWIDTH 3 0
BBX 3 8 0 0
BITMAP
20
60
60
60
40
40
80
C0
ENDCHAR
STARTCHAR quotedbl
ENCODING 34
SWIDTH 492 0
DWIDTH 5 0
BBX 5 5 1 3
BITMAP
58
D8
D0
F0
B0
ENDCHAR
STARTCHAR numbersign
ENCODING 35
SWIDTH 703 0
DWIDTH 8 0
BBX 8 8 0 0
BITMAP
12
16
7F
7C
2C
FE
68
58
ENDCHAR
STARTCHAR dollar
ENCODING 36
SWIDTH 493 0
DWIDTH 5 0
BBX 6 8 0 0
BITMAP
10
18
7C
E0
10
10
60
60
ENDCHAR
STARTCHAR percent
ENCODING 37
SWIDTH 643 0
DWIDTH 7 0
BBX 7 8 0 0
BITMAP
22
66
74
78
34
6C
5C
CC
ENDCHAR
STARTCHAR ampersand
ENCODING 38
SWIDTH 599 0
DWIDTH 7 0
BBX 6 6 0 0
BITMAP
10
78
FC
78
30
10
ENDCHAR
STARTCHAR quotesingle
ENCODING 39
SWIDTH 265 0
DWIDTH 3 0
BBX 2 5 1 3
BITMAP
40
C0
C0
C0
80
ENDCHAR
STARTCHAR parenleft
ENCODING 40
SWIDTH 361 0
DWIDTH 4 0
BBX 5 11 0 -2
BITMAP
08
18
30
60
60
40
C0
C0
C0
40
60
ENDCHAR
STARTCHAR parenright
ENCODING 41
SWIDTH 361 0
DWIDTH 4 0
BBX 5 11 -1 -2
BITMAP
30
30
18
10
10
10
30
30
60
C0
80
ENDCHAR
STARTCHAR asterisk
ENCODING 42
SWIDTH 673 0
DWIDTH 7 0
BBX 7 5 1 3
BITMAP
68
38
FE
B8
68
ENDCHAR
STARTCHAR plus
ENCODING 43
SWIDTH 579 0
DWIDTH 6 0
BBX 6 6 0 0
BITMAP
10
30
78
FC
20
20
ENDCHAR
STARTCHAR comma
ENCODING 44
SWIDTH 204 0
DWIDTH 2 0
BBX 2 4 -1 -2
BITMAP
40
40
C0
80
ENDCHAR
STARTCHAR hyphen
ENCODING 45
SWIDTH 609 0
DWIDTH 7 0
BBX 6 2 0 2
BITMAP
78
FC
ENDCHAR
STARTCHAR period
ENCODING 46
SWIDTH 228 0
DWIDTH 3 0
BBX 2 2 0 0
BITMAP
80
C0
ENDCHAR
STARTCHAR slash
ENCODING 47
SWIDTH 401 0
DWIDTH 4 0
BBX 5 8 0 0
BITMAP
08
08
18
30
60
C0
80
80
ENDCHAR
STARTCHAR zero
ENCODING 48
SWIDTH 686 0
DWIDTH 8 0
BBX 7 8 0 0
BITMAP
0C
1C
3C
66
C6
C6
FE
7C
ENDCHAR
STARTCHAR one
ENCODING 49
SWIDTH 322 0
DWIDTH 4 0
BBX 3 8 0 0
BITMAP
40
60
60
60
60
60
C0
C0
ENDCHAR
STARTCHAR two
ENCODING 50
SWIDTH 650 0
DWIDTH 7 0
BBX 7 8 1 0
BITMAP
F0
F8
1C
38
60
C4
FE
F8
ENDCHAR
STARTCHAR three
ENCODING 51
SWIDTH 561 0
DWIDTH 6 0
BBX 6 8 0 0
BITMAP
7C
FC
F8
70
38
0C
F8
F0
ENDCHAR
STARTCHAR four
ENCODING 52
SWIDTH 582 0
DWIDTH 6 0
BBX 5 8 1 0
BITMAP
10
90
90
F8
F0
20
20
30
ENDCHAR
STARTCHAR five
ENCODING 53
SWIDTH 580 0
DWIDTH 6 0
BBX 6 8 1 0
BITMAP
60
FC
FC
E0
70
10
F0
F0
ENDCHAR
STARTCHAR six
ENCODING 54
SWIDTH 500 0
DWIDTH 6 0
BBX 5 8 0 0
BITMAP
30
30
60
40
F8
F8
F8
F0
ENDCHAR
STARTCHAR seven
ENCODING 55
SWIDTH 576 0
DWIDTH 6 0
BBX 7 8 0 0
BITMAP
F0
F8
08
08
7E
70
30
20
ENDCHAR
STARTCHAR eight
ENCODING 56
SWIDTH 537 0
DWIDTH 6 0
BBX 5 8 1 0
BITMAP
68
F8
98
F0
E0
A0
F0
E0
ENDCHAR
STARTCHAR nine
ENCODING 57
SWIDTH 529 0
DWIDTH 6 0
BBX 6 8 0 0
BITMAP
38
78
5C
FC
08
18
18
10
ENDCHAR
STARTCHAR colon
ENCODING 58
SWIDTH 241 0
DWIDTH 3 0
BBX 2 5 0 0
BITMAP
40
C0
00
80
C0
ENDCHAR
STARTCHAR semicolon
ENCODING 59
SWIDTH 245 0
DWIDTH 3 0
BBX 3 7 -1 -2
BITMAP
20
60
00
40
60
40
C0
ENDCHAR
STARTCHAR less
ENCODING 60
SWIDTH 625 0
DWIDTH 7 0
BBX 7 5 0 0
BITMAP
0E
78
E0
38
0C
ENDCHAR
STARTCHAR equal
ENCODING 61
SWIDTH 586 0
DWIDTH 6 0
BBX 6 4 0 1
BITMAP
7C
F0
78
F8
ENDCHAR
STARTCHAR greater
ENCODING 62
SWIDTH 634 0
DWIDTH 7 0
BBX 6 5 0 0
BITMAP
70
3C
3C
E0
80
ENDCHAR
STARTCHAR question
ENCODING 63
SWIDTH 556 0
DWIDTH 6 0
BBX 6 8 1 0
BITMAP
F8
FC
1C
38
60
C0
80
80
ENDCHAR
STARTCHAR at
ENCODING 64
SWIDTH 732 0
DWIDTH 8 0
BBX 8 8 0 0
BITMAP
0C
1E
36
7D
FD
BE
C0
7E
ENDCHAR
STARTCHAR A
ENCODING 65
SWIDTH 702 0
DWIDTH 8 0
BBX 8 8 0 0
BITMAP
0C
3C
3C
7C
6F
FE
C6
CC
ENDCHAR
STARTCHAR B
ENCODING 66
SWIDTH 686 0
DWIDTH 8 0
BBX 7 8 0 0
BITMAP
7C
FE
AE
3C
7E
66
7E
78
ENDCHAR
STARTCHAR C
ENCODING 67
SWIDTH 611 0
DWIDTH 7 0
BBX 7 8 0 0
BITMAP
0C
3E
78
E0
C0
C0
7C
3C
ENDCHAR
STARTCHAR D
ENCODING 68
SWIDTH 588 0
DWIDTH 6 0
BBX 6 8 0 0
BITMAP
40
70
58
44
44
DC
F8
C0
ENDCHAR
STARTCHAR E
ENCODING 69
SWIDTH 626 0
DWIDTH 7 0
BBX 7 8 0 0
BITMAP
1E
7E
60
78
7C
C0
FE
7C
ENDCHAR
STARTCHAR F
ENCODING 70
SWIDTH 575 0
DWIDTH 6 0
BBX 8 8 0 0
BITMAP
1E
7F
60
60
FC
F0
C0
C0
ENDCHAR
STARTCHAR G
ENCODING 71
SWIDTH 789 0
DWIDTH 9 0
BBX 9 8 0 0
BITMAP
0400
1E00
3800
7200
E700
C780
FF00
7800
ENDCHAR
STARTCHAR H
ENCODING 72
SWIDTH 695 0
DWIDTH 8 0
BBX 7 8 0 0
BITMAP
42
62
66
66
7E
FE
EE
C4
ENDCHAR
STARTCHAR I
ENCODING 73
SWIDTH 515 0
DWIDTH 6 0
BBX 7 8 0 0
BITMAP
7E
7E
18
10
30
30
F8
F0
ENDCHAR
STARTCHAR J
ENCODING 74
SWIDTH 668 0
DWIDTH 7 0
BBX 9 8 0 0
BITMAP
3F00
7F80
0C00
0C00
0C00
1800
F800
F000
ENDCHAR
STARTCHAR K
ENCODING 75
SWIDTH 776 0
DWIDTH 9 0
BBX 9 8 0 0
BITMAP
3100
3700
6F00
7C00
7800
FD00
E780
C000
ENDCHAR
STARTCHAR L
ENCODING 76
SWIDTH 632 0
DWIDTH 7 0
BBX 7 8 0 0
BITMAP
30
30
60
60
E0
C0
FE
7E
ENDCHAR
STARTCHAR M
ENCODING 77
SWIDTH 973 0
DWIDTH 11 0
BBX 11 8 0 0
BITMAP
1040
38E0
39C0
7FC0
7EC0
C8C0
C0C0
C080
ENDCHAR
STARTCHAR N
ENCODING 78
SWIDTH 684 0
DWIDTH 8 0
BBX 8 8 0 0
BITMAP
32
33
76
76
76
FE
DC
C8
ENDCHAR
STARTCHAR O
ENCODING 79
SWIDTH 744 0
DWIDTH 8 0
BBX 8 8 0 0
BITMAP
0C
1E
3E
66
E3
C7
FE
7C
ENDCHAR
STARTCHAR P
ENCODING 80
SWIDTH 639 0
DWIDTH 7 0
BBX 7 8 0 0
BITMAP
1E
3E
22
7E
FC
60
60
C0
ENDCHAR
STARTCHAR Q
ENCODING 81
SWIDTH 744 0
DWIDTH 8 0
BBX 8 9 0 -1
BITMAP
0C
1E
3E
73
EB
CF
FE
7A
02
ENDCHAR
STARTCHAR R
ENCODING 82
SWIDTH 646 0
DWIDTH 7 0
BBX 7 8 0 0
BITMAP
18
3C
7C
6C
7C
E0
FC
DE
ENDCHAR
STARTCHAR S
ENCODING 83
SWIDTH 576 0
DWIDTH 6 0
BBX 8 8 0 0
BITMAP
1E
7F
E0
F8
08
08
78
70
ENDCHAR
STARTCHAR T
ENCODING 84
SWIDTH 607 0
DWIDTH 7 0
BBX 9 8 0 0
BITMAP
3F00
FF80
1800
3000
3000
3000
2000
3000
ENDCHAR
STARTCHAR U
ENCODING 85
SWIDTH 695 0
DWIDTH 8 0
BBX 7 8 1 0
BITMAP
04
86
C6
C6
8C
F8
F8
E0
ENDCHAR
STARTCHAR V
ENCODING 86
SWIDTH 583 0
DWIDTH 6 0
BBX 6 8 1 0
BITMAP
84
8C
D8
F8
F0
E0
E0
40
ENDCHAR
STARTCHAR W
ENCODING 87
SWIDTH 994 0
DWIDTH 11 0
BBX 11 8 0 0
BITMAP
2020
6260
6660
6E60
CEC0
DFC0
FB80
6300
ENDCHAR
STARTCHAR X
ENCODING 88
SWIDTH 623 0
DWIDTH 7 0
BBX 8 8 0 0
BITMAP
42
67
7E
38
78
FC
CC
8C
ENDCHAR
STARTCHAR Y
ENCODING 89
SWIDTH 493 0
DWIDTH 5 0
BBX 7 8 0 0
BITMAP
46
6C
78
78
30
60
60
C0
ENDCHAR
STARTCHAR Z
ENCODING 90
SWIDTH 664 0
DWIDTH 7 0
BBX 8 8 0 0
BITMAP
3E
3F
0E
1C
70
E0
FE
F8
ENDCHAR
STARTCHAR bracketleft
ENCODING 91
SWIDTH 387 0
DWIDTH 4 0
BBX 8 12 0 -2
BITMAP
3E
3F
30
20
60
60
60
40
C0
C0
F8
E0
ENDCHAR
STARTCHAR backslash
ENCODING 92
SWIDTH 352 0
DWIDTH 4 0
BBX 2 8 1 0
BITMAP
80
80
80
80
C0
40
40
40
ENDCHAR
STARTCHAR bracketright
ENCODING 93
SWIDTH 403 0
DWIDTH 4 0
BBX 8 12 -3 -2
BITMAP
3E
1F
02
06
06
04
04
0C
0C
08
F8
D0
ENDCHAR
STARTCHAR asciicircum
ENCODING 94
SWIDTH 518 0
DWIDTH 6 0
BBX 5 6 0 2
BITMAP
10
38
38
78
C8
88
ENDCHAR
STARTCHAR underscore
ENCODING 95
SWIDTH 708 0
DWIDTH 8 0
BBX 9 1 -1 0
BITMAP
FF80
ENDCHAR
STARTCHAR grave
ENCODING 96
SWIDTH 754 0
DWIDTH 8 0
BBX 3 3 3 5
BITMAP
C0
60
20
ENDCHAR
STARTCHAR a
ENCODING 97
SWIDTH 581 0
DWIDTH 6 0
BBX 6 7 0 0
BITMAP
10
18
78
68
FC
FC
88
ENDCHAR
STARTCHAR b
ENCODING 98
SWIDTH 573 0
DWIDTH 6 0
BBX 6 7 0 0
BITMAP
38
FC
F8
78
64
5C
F8
ENDCHAR
STARTCHAR c
ENCODING 99
SWIDTH 513 0
DWIDTH 6 0
BBX 5 7 0 0
BITMAP
08
38
70
C0
80
F0
78
ENDCHAR
STARTCHAR d
ENCODING 100
SWIDTH 497 0
DWIDTH 5 0
BBX 5 7 0 0
BITMAP
80
60
58
48
58
F0
C0
ENDCHAR
STARTCHAR e
ENCODING 101
SWIDTH 521 0
DWIDTH 6 0
BBX 6 7 0 0
BITMAP
08
7C
60
78
F0
DC
F8
ENDCHAR
STARTCHAR f
ENCODING 102
SWIDTH 455 0
DWIDTH 5 0
BBX 6 7 0 0
BITMAP
0C
7C
E0
60
F8
C0
C0
ENDCHAR
STARTCHAR g
ENCODING 103
SWIDTH 652 0
DWIDTH 7 0
BBX 8 7 0 0
BITMAP
08
1C
30
6C
C7
FE
78
ENDCHAR
STARTCHAR h
ENCODING 104
SWIDTH 582 0
DWIDTH 6 0
BBX 6 7 0 0
BITMAP
04
44
44
4C
FC
E8
CC
ENDCHAR
STARTCHAR i
ENCODING 105
SWIDTH 320 0
DWIDTH 4 0
BBX 2 7 1 0
BITMAP
40
C0
C0
C0
80
80
80
ENDCHAR
STARTCHAR j
ENCODING 106
SWIDTH 534 0
DWIDTH 6 0
BBX 7 6 0 0
BITMAP
7E
08
18
18
B0
F0
ENDCHAR
STARTCHAR k
ENCODING 107
SWIDTH 645 0
DWIDTH 7 0
BBX 7 7 0 0
BITMAP
20
66
7C
78
F0
FE
C6
ENDCHAR
STARTCHAR l
ENCODING 108
SWIDTH 533 0
DWIDTH 6 0
BBX 6 7 0 0
BITMAP
40
60
60
40
C0
F8
FC
ENDCHAR
STARTCHAR m
ENCODING 109
SWIDTH 814 0
DWIDTH 9 0
BBX 9 7 0 0
BITMAP
2000
3180
7380
7F80
DD00
C100
8100
ENDCHAR
STARTCHAR n
ENCODING 110
SWIDTH 564 0
DWIDTH 6 0
BBX 6 7 0 0
BITMAP
24
34
64
6C
EC
F8
98
ENDCHAR
STARTCHAR o
ENCODING 111
SWIDTH 628 0
DWIDTH 7 0
BBX 7 7 0 0
BITMAP
08
18
3C
64
C6
DC
78
ENDCHAR
STARTCHAR p
ENCODING 112
SWIDTH 524 0
DWIDTH 6 0
BBX 6 7 0 0
BITMAP
18
3C
64
FC
F0
C0
C0
ENDCHAR
STARTCHAR q
ENCODING 113
SWIDTH 625 0
DWIDTH 7 0
BBX 7 8 0 -1
BITMAP
18
1C
34
66
DE
BC
F4
04
ENDCHAR
STARTCHAR r
ENCODING 114
SWIDTH 541 0
DWIDTH 6 0
BBX 6 7 0 0
BITMAP
10
38
68
58
F0
F0
DC
ENDCHAR
STARTCHAR s
ENCODING 115
SWIDTH 463 0
DWIDTH 5 0
BBX 6 7 0 0
BITMAP
0C
7C
E0
70
18
30
60
ENDCHAR
STARTCHAR t
ENCODING 116
SWIDTH 479 0
DWIDTH 5 0
BBX 7 7 0 0
BITMAP
1E
FE
30
30
20
60
60
ENDCHAR
STARTCHAR u
ENCODING 117
SWIDTH 584 0
DWIDTH 6 0
BBX 6 7 1 0
BITMAP
08
88
8C
88
98
F0
E0
ENDCHAR
STARTCHAR v
ENCODING 118
SWIDTH 485 0
DWIDTH 5 0
BBX 5 7 1 0
BITMAP
88
98
B8
B0
E0
C0
C0
ENDCHAR
STARTCHAR w
ENCODING 119
SWIDTH 825 0
DWIDTH 9 0
BBX 10 7 0 0
BITMAP
0080
64C0
6C80
4D80
DD80
F700
6600
ENDCHAR
STARTCHAR x
ENCODING 120
SWIDTH 506 0
DWIDTH 6 0
BBX 6 6 0 0
BITMAP
6C
78
30
70
D8
88
ENDCHAR
STARTCHAR y
ENCODING 121
SWIDTH 400 0
DWIDTH 4 0
BBX 6 7 0 0
BITMAP
88
5C
58
70
60
60
C0
ENDCHAR
STARTCHAR z
ENCODING 122
SWIDTH 547 0
DWIDTH 6 0
BBX 6 7 0 0
BITMAP
20
7C
1C
38
60
DC
F8
ENDCHAR
STARTCHAR braceleft
ENCODING 123
SWIDTH 448 0
DWIDTH 5 0
BBX 9 12 0 -2
BITMAP
1F00
1F80
1800
1000
7000
E000
7000
2000
6000
6000
7C00
7000
ENDCHAR
STARTCHAR bar
ENCODING 124
SWIDTH 332 0
DWIDTH 4 0
BBX 4 8 0 0
BITMAP
20
30
20
60
60
40
C0
80
ENDCHAR
STARTCHAR braceright
ENCODING 125
SWIDTH 481 0
DWIDTH 5 0
BBX 8 12 -3 -2
BITMAP
3E
1E
02
06
06
07
07
0C
0C
08
F8
D0
ENDCHAR
STARTCHAR asciitilde
ENCODING 126
SWIDTH 581 0
DWIDTH 6 0
BBX 6 2 0 2
BITMAP
7C
98
ENDCHAR
STARTCHAR uni00A0
ENCODING 160
SWIDTH 370 0
DWIDTH 4 0
BBX 1 1 0 0
BITMAP
00
ENDCHAR
STARTCHAR exclamdown
ENCODING 161
SWIDTH 260 0
DWIDTH 3 0
BBX 3 8 0 0
BITMAP
60
40
00
40
C0
C0
C0
80
ENDCHAR
STARTCHAR cent
ENCODING 162
SWIDTH 488 0
DWIDTH 5 0
BBX 5 8 0 0
BITMAP
10
18
78
E0
80
F0
78
60
ENDCHAR
STARTCHAR sterling
ENCODING 163
SWIDTH 586 0
DWIDTH 6 0
BBX 6 6 0 1
BITMAP
1C
34
F8
F8
68
FC
ENDCHAR
STARTCHAR currency
ENCODING 164
SWIDTH 509 0
DWIDTH 6 0
BBX 6 6 0 0
BITMAP
7C
78
58
F8
F8
90
ENDCHAR
STARTCHAR yen
ENCODING 165
SWIDTH 563 0
DWIDTH 6 0
BBX 6 7 0 0
BITMAP
44
6C
38
F8
FC
60
60
ENDCHAR
STARTCHAR brokenbar
ENCODING 166
SWIDTH 301 0
DWIDTH 3 0
BBX 3 8 0 0
BITMAP
20
20
20
60
00
40
C0
80
ENDCHAR
STARTCHAR section
ENCODING 167
SWIDTH 630 0
DWIDTH 7 0
BBX 7 10 0 -1
BITMAP
0C
7E
60
78
7C
CE
7C
1C
FC
F8
ENDCHAR
STARTCHAR dieresis
ENCODING 168
SWIDTH 754 0
DWIDTH 8 0
BBX 5 2 2 6
BITMAP
58
C8
ENDCHAR
STARTCHAR copyright
ENCODING 169
SWIDTH 614 0
DWIDTH 7 0
BBX 7 7 0 1
BITMAP
38
64
5A
A2
B6
4C
30
ENDCHAR
STARTCHAR ordfeminine
ENCODING 170
SWIDTH 454 0
DWIDTH 5 0
BBX 5 5 0 2
BITMAP
30
70
78
F8
90
ENDCHAR
STARTCHAR guillemotleft
ENCODING 171
SWIDTH 566 0
DWIDTH 6 0
BBX 6 5 0 0
BITMAP
24
6C
D8
D8
68
ENDCHAR
STARTCHAR logicalnot
ENCODING 172
SWIDTH 698 0
DWIDTH 8 0
BBX 7 4 0 0
BITMAP
7C
FE
04
04
ENDCHAR
STARTCHAR sfthyphen
ENCODING 173
SWIDTH 608 0
DWIDTH 7 0
BBX 6 2 0 2
BITMAP
78
FC
ENDCHAR
STARTCHAR registered
ENCODING 174
SWIDTH 624 0
DWIDTH 7 0
BBX 7 7 0 1
BITMAP
38
6C
5A
FA
B6
4C
38
ENDCHAR
STARTCHAR macron
ENCODING 175
SWIDTH 754 0
DWIDTH 8 0
BBX 4 1 3 7
BITMAP
F0
ENDCHAR
STARTCHAR degree
ENCODING 176
SWIDTH 284 0
DWIDTH 3 0
BBX 3 4 1 5
BITMAP
60
E0
E0
40
ENDCHAR
STARTCHAR plusminus
ENCODING 177
SWIDTH 559 0
DWIDTH 6 0
BBX 6 8 0 0
BITMAP
10
10
10
FC
30
30
10
F8
ENDCHAR
STARTCHAR twosuperior
ENCODING 178
SWIDTH 386 0
DWIDTH 4 0
BBX 4 4 1 4
BITMAP
E0
E0
C0
F0
ENDCHAR
STARTCHAR threesuperior
ENCODING 179
SWIDTH 366 0
DWIDTH 4 0
BBX 3 4 1 4
BITMAP
E0
E0
60
E0
ENDCHAR
STARTCHAR acute
ENCODING 180
SWIDTH 754 0
DWIDTH 8 0
BBX 3 3 3 5
BITMAP
20
60
C0
ENDCHAR
STARTCHAR mu
ENCODING 181
SWIDTH 569 0
DWIDTH 6 0
BBX 6 7 0 -1
BITMAP
04
44
4C
CC
F8
F0
80
ENDCHAR
STARTCHAR paragraph
ENCODING 182
SWIDTH 729 0
DWIDTH 8 0
BBX 8 8 1 0
BITMAP
3F
FE
D4
D4
7C
3E
2C
2C
ENDCHAR
STARTCHAR periodcentered
ENCODING 183
SWIDTH 226 0
DWIDTH 3 0
BBX 2 2 0 3
BITMAP
40
C0
ENDCHAR
STARTCHAR cedilla
ENCODING 184
SWIDTH 754 0
DWIDTH 8 0
BBX 4 4 3 -3
BITMAP
60
40
60
F0
ENDCHAR
STARTCHAR onesuperior
ENCODING 185
SWIDTH 206 0
DWIDTH 2 0
BBX 1 4 1 4
BITMAP
80
80
80
80
ENDCHAR
STARTCHAR ordmasculine
ENCODING 186
SWIDTH 445 0
DWIDTH 5 0
BBX 5 5 0 2
BITMAP
30
70
D8
F8
60
ENDCHAR
STARTCHAR guillemotright
ENCODING 187
SWIDTH 595 0
DWIDTH 7 0
BBX 6 5 0 0
BITMAP
90
58
2C
D8
90
ENDCHAR
STARTCHAR onequarter
ENCODING 188
SWIDTH 705 0
DWIDTH 8 0
BBX 7 8 0 0
BITMAP
44
4C
58
50
3A
6E
CC
C4
ENDCHAR
STARTCHAR onehalf
ENCODING 189
SWIDTH 750 0
DWIDTH 8 0
BBX 8 8 0 0
BITMAP
44
4C
58
50
3E
66
CE
CF
ENDCHAR
STARTCHAR threequarters
ENCODING 190
SWIDTH 818 0
DWIDTH 9 0
BBX 7 8 1 0
BITMAP
E2
E6
6C
F8
3A
6E
CC
C4
ENDCHAR
STARTCHAR questiondown
ENCODING 191
SWIDTH 556 0
DWIDTH 6 0
BBX 7 8 -1 0
BITMAP
04
06
00
0C
38
60
FC
7C
ENDCHAR
STARTCHAR Agrave
ENCODING 192
SWIDTH 702 0
DWIDTH 8 0
BBX 8 11 0 0
BITMAP
18
0C
04
0C
3C
3C
7C
6F
FE
C6
CC
ENDCHAR
STARTCHAR Aacute
ENCODING 193
SWIDTH 702 0
DWIDTH 8 0
BBX 8 12 0 0
BITMAP
06
0C
18
00
0C
3C
3C
7C
6F
FE
C6
CC
ENDCHAR
STARTCHAR Acircumflex
ENCODING 194
SWIDTH 702 0
DWIDTH 8 0
BBX 8 12 0 0
BITMAP
08
1C
16
00
0C
3C
3C
7C
6F
FE
C6
CC
ENDCHAR
STARTCHAR Atilde
ENCODING 195
SWIDTH 702 0
DWIDTH 8 0
BBX 8 10 0 0
BITMAP
1F
16
0C
3C
3C
7C
6F
FE
C6
CC
ENDCHAR
STARTCHAR Adieresis
ENCODING 196
SWIDTH 702 0
DWIDTH 8 0
BBX 8 10 0 0
BITMAP
12
16
0C
3C
3C
7C
6F
FE
C6
CC
ENDCHAR
STARTCHAR Aring
ENCODING 197
SWIDTH 702 0
DWIDTH 8 0
BBX 8 11 0 0
BITMAP
04
0C
0E
0C
3C
3C
7C
6F
FE
C6
CC
ENDCHAR
STARTCHAR AE
ENCODING 198
SWIDTH 1153 0
DWIDTH 13 0
BBX 14 8 -1 0
BITMAP
063C
0EFC
1EC0
3EF0
37F8
7F80
43F8
C7F8
ENDCHAR
STARTCHAR Ccedilla
ENCODING 199
SWIDTH 611 0
DWIDTH 7 0
BBX 7 11 0 -3
BITMAP
0C
3E
78
E0
C0
C0
7C
3C
20
30
78
ENDCHAR
STARTCHAR Egrave
ENCODING 200
SWIDTH 626 0
DWIDTH 7 0
BBX 7 12 0 0
BITMAP
10
18
0C
00
1E
7E
60
78
7C
C0
FE
7C
ENDCHAR
STARTCHAR Eacute
ENCODING 201
SWIDTH 626 0
DWIDTH 7 0
BBX 7 12 0 0
BITMAP
04
0C
18
00
1E
7E
60
78
7C
C0
FE
7C
ENDCHAR
STARTCHAR Ecircumflex
ENCODING 202
SWIDTH 626 0
DWIDTH 7 0
BBX 7 12 0 0
BITMAP
08
1C
36
00
1E
7E
60
78
7C
C0
FE
7C
ENDCHAR
STARTCHAR Edieresis
ENCODING 203
SWIDTH 626 0
DWIDTH 7 0
BBX 7 10 0 0
BITMAP
36
32
1E
7E
60
78
7C
C0
FE
7C
ENDCHAR
STARTCHAR Igrave
ENCODING 204
SWIDTH 515 0
DWIDTH 6 0
BBX 7 12 0 0
BITMAP
30
18
0C
00
7E
7E
18
10
30
30
F8
F0
ENDCHAR
STARTCHAR Iacute
ENCODING 205
SWIDTH 515 0
DWIDTH 6 0
BBX 7 12 0 0
BITMAP
06
0E
08
00
7E
7E
18
10
30
30
F8
F0
ENDCHAR
STARTCHAR Icircumflex
ENCODING 206
SWIDTH 515 0
DWIDTH 6 0
BBX 7 12 0 0
BITMAP
08
1C
36
00
7E
7E
18
10
30
30
F8
F0
ENDCHAR
STARTCHAR Idieresis
ENCODING 207
SWIDTH 515 0
DWIDTH 6 0
BBX 7 11 0 0
BITMAP
16
32
00
7E
7E
18
10
30
30
F8
F0
ENDCHAR
STARTCHAR Eth
ENCODING 208
SWIDTH 656 0
DWIDTH 7 0
BBX 7 8 0 0
BITMAP
60
38
6C
F6
F6
7E
78
60
ENDCHAR
STARTCHAR Ntilde
ENCODING 209
SWIDTH 684 0
DWIDTH 8 0
BBX 8 11 0 0
BITMAP
1D
16
00
32
33
76
76
76
FE
DC
C8
ENDCHAR
STARTCHAR Ograve
ENCODING 210
SWIDTH 744 0
DWIDTH 8 0
BBX 8 11 0 0
BITMAP
0C
06
02
0C
1E
3E
66
E3
C7
FE
7C
ENDCHAR
STARTCHAR Oacute
ENCODING 211
SWIDTH 744 0
DWIDTH 8 0
BBX 8 12 0 0
BITMAP
06
0C
18
00
0C
1E
3E
66
E3
C7
FE
7C
ENDCHAR
STARTCHAR Ocircumflex
ENCODING 212
SWIDTH 744 0
DWIDTH 8 0
BBX 8 12 0 0
BITMAP
04
0E
1B
00
0C
1E
3E
66
E3
C7
FE
7C
ENDCHAR
STARTCHAR Otilde
ENCODING 213
SWIDTH 744 0
DWIDTH 8 0
BBX 8 11 0 0
BITMAP
1D
16
00
0C
1E
3E
66
E3
C7
FE
7C
ENDCHAR
STARTCHAR Odieresis
ENCODING 214
SWIDTH 744 0
DWIDTH 8 0
BBX 8 10 0 0
BITMAP
1B
12
0C
1E
3E
66
E3
C7
FE
7C
ENDCHAR
STARTCHAR multiply
ENCODING 215
SWIDTH 490 0
DWIDTH 5 0
BBX 5 6 0 0
BITMAP
48
78
30
70
D0
90
ENDCHAR
STARTCHAR Oslash
ENCODING 216
SWIDTH 744 0
DWIDTH 8 0
BBX 8 9 0 -1
BITMAP
0F
1F
3E
6E
FB
DF
FE
7C
60
ENDCHAR
STARTCHAR Ugrave
ENCODING 217
SWIDTH 695 0
DWIDTH 8 0
BBX 7 11 1 0
BITMAP
60
30
10
04
86
C6
C6
8C
F8
F8
E0
ENDCHAR
STARTCHAR Uacute
ENCODING 218
SWIDTH 695 0
DWIDTH 8 0
BBX 7 11 1 0
BITMAP
0C
1C
10
04
86
C6
C6
8C
F8
F8
E0
ENDCHAR
STARTCHAR Ucircumflex
ENCODING 219
SWIDTH 695 0
DWIDTH 8 0
BBX 7 12 1 0
BITMAP
10
38
6C
00
04
86
C6
C6
8C
F8
F8
E0
ENDCHAR
STARTCHAR Udieresis
ENCODING 220
SWIDTH 695 0
DWIDTH 8 0
BBX 7 10 1 0
BITMAP
6C
64
04
86
C6
C6
8C
F8
F8
E0
ENDCHAR
STARTCHAR Yacute
ENCODING 221
SWIDTH 493 0
DWIDTH 5 0
BBX 7 12 0 0
BITMAP
04
0C
18
00
46
6C
78
78
30
60
60
C0
ENDCHAR
STARTCHAR Thorn
ENCODING 222
SWIDTH 680 0
DWIDTH 7 0
BBX 8 8 0 0
BITMAP
20
70
7E
67
CE
FC
E0
40
ENDCHAR
STARTCHAR germandbls
ENCODING 223
SWIDTH 931 0
DWIDTH 10 0
BBX 11 7 0 0
BITMAP
0C60
7FE0
E700
7380
1840
3180
6300
ENDCHAR
STARTCHAR agrave
ENCODING 224
SWIDTH 581 0
DWIDTH 6 0
BBX 6 10 0 0
BITMAP
30
18
0C
10
18
78
68
FC
FC
88
ENDCHAR
STARTCHAR aacute
ENCODING 225
SWIDTH 581 0
DWIDTH 6 0
BBX 6 10 0 0
BITMAP
0C
18
30
10
18
78
68
FC
FC
88
ENDCHAR
STARTCHAR acircumflex
ENCODING 226
SWIDTH 581 0
DWIDTH 6 0
BBX 6 10 0 0
BITMAP
10
38
24
10
18
78
68
FC
FC
88
ENDCHAR
STARTCHAR atilde
ENCODING 227
SWIDTH 581 0
DWIDTH 6 0
BBX 7 9 0 0
BITMAP
3E
2C
10
18
78
68
FC
FC
88
ENDCHAR
STARTCHAR adieresis
ENCODING 228
SWIDTH 581 0
DWIDTH 6 0
BBX 7 9 0 0
BITMAP
36
24
10
18
78
68
FC
FC
88
ENDCHAR
STARTCHAR aring
ENCODING 229
SWIDTH 581 0
DWIDTH 6 0
BBX 6 9 0 0
BITMAP
08
1C
1C
18
78
68
FC
FC
88
ENDCHAR
STARTCHAR ae
ENCODING 230
SWIDTH 948 0
DWIDTH 10 0
BBX 12 7 -1 0
BITMAP
0820
0FF0
3D00
35E0
7F80
56E0
CFE0
ENDCHAR
STARTCHAR ccedilla
ENCODING 231
SWIDTH 513 0
DWIDTH 6 0
BBX 5 10 0 -3
BITMAP
08
38
70
C0
80
F0
78
60
30
70
ENDCHAR
STARTCHAR egrave
ENCODING 232
SWIDTH 521 0
DWIDTH 6 0
BBX 6 10 0 0
BITMAP
60
30
18
08
7C
60
78
F0
DC
F8
ENDCHAR
STARTCHAR eacute
ENCODING 233
SWIDTH 521 0
DWIDTH 6 0
BBX 6 10 0 0
BITMAP
0C
18
30
08
7C
60
78
F0
DC
F8
ENDCHAR
STARTCHAR ecircumflex
ENCODING 234
SWIDTH 521 0
DWIDTH 6 0
BBX 6 10 0 0
BITMAP
08
18
24
08
7C
60
78
F0
DC
F8
ENDCHAR
STARTCHAR edieresis
ENCODING 235
SWIDTH 521 0
DWIDTH 6 0
BBX 7 9 0 0
BITMAP
36
24
08
7C
60
78
F0
DC
F8
ENDCHAR
STARTCHAR igrave
ENCODING 236
SWIDTH 320 0
DWIDTH 4 0
BBX 3 10 1 0
BITMAP
C0
E0
20
40
C0
C0
C0
80
80
80
ENDCHAR
STARTCHAR iacute
ENCODING 237
SWIDTH 320 0
DWIDTH 4 0
BBX 5 10 1 0
BITMAP
18
30
20
40
C0
C0
C0
80
80
80
ENDCHAR
STARTCHAR icircumflex
ENCODING 238
SWIDTH 320 0
DWIDTH 4 0
BBX 5 10 0 0
BITMAP
20
70
D8
20
60
60
60
40
40
40
ENDCHAR
STARTCHAR idieresis
ENCODING 239
SWIDTH 320 0
DWIDTH 4 0
BBX 5 9 0 0
BITMAP
D8
48
20
60
60
60
40
40
40
ENDCHAR
STARTCHAR eth
ENCODING 240
SWIDTH 541 0
DWIDTH 6 0
BBX 6 7 0 0
BITMAP
40
70
58
E4
CC
78
60
ENDCHAR
STARTCHAR ntilde
ENCODING 241
SWIDTH 564 0
DWIDTH 6 0
BBX 8 9 0 0
BITMAP
1F
36
24
34
64
6C
EC
F8
98
ENDCHAR
STARTCHAR ograve
ENCODING 242
SWIDTH 628 0
DWIDTH 7 0
BBX 7 10 0 0
BITMAP
18
1C
0C
08
18
3C
64
C6
DC
78
ENDCHAR
STARTCHAR oacute
ENCODING 243
SWIDTH 628 0
DWIDTH 7 0
BBX 7 10 0 0
BITMAP
0C
18
10
08
18
3C
64
C6
DC
78
ENDCHAR
STARTCHAR ocircumflex
ENCODING 244
SWIDTH 628 0
DWIDTH 7 0
BBX 7 11 0 0
BITMAP
08
1C
36
00
08
18
3C
64
C6
DC
78
ENDCHAR
STARTCHAR otilde
ENCODING 245
SWIDTH 628 0
DWIDTH 7 0
BBX 8 9 0 0
BITMAP
1F
36
08
18
3C
64
C6
DC
78
ENDCHAR
STARTCHAR odieresis
ENCODING 246
SWIDTH 628 0
DWIDTH 7 0
BBX 7 9 0 0
BITMAP
16
32
08
18
3C
64
C6
DC
78
ENDCHAR
STARTCHAR divide
ENCODING 247
SWIDTH 559 0
DWIDTH 6 0
BBX 6 6 0 0
BITMAP
30
10
FC
F8
20
60
ENDCHAR
STARTCHAR oslash
ENCODING 248
SWIDTH 632 0
DWIDTH 7 0
BBX 7 8 0 -1
BITMAP
0A
1E
3C
7C
D6
FC
78
40
ENDCHAR
STARTCHAR ugrave
ENCODING 249
SWIDTH 584 0
DWIDTH 6 0
BBX 6 10 1 0
BITMAP
60
70
10
08
88
8C
88
98
F0
E0
ENDCHAR
STARTCHAR uacute
ENCODING 250
SWIDTH 584 0
DWIDTH 6 0
BBX 6 10 1 0
BITMAP
08
18
30
08
88
8C
88
98
F0
E0
ENDCHAR
STARTCHAR ucircumflex
ENCODING 251
SWIDTH 584 0
DWIDTH 6 0
BBX 6 11 1 0
BITMAP
10
38
68
00
08
88
8C
88
98
F0
E0
ENDCHAR
STARTCHAR udieresis
ENCODING 252
SWIDTH 584 0
DWIDTH 6 0
BBX 6 9 1 0
BITMAP
6C
48
08
88
8C
88
98
F0
E0
ENDCHAR
STARTCHAR yacute
ENCODING 253
SWIDTH 400 0
DWIDTH 4 0
BBX 6 11 0 0
BITMAP
0C
1C
10
00
88
5C
58
70
60
60
C0
ENDCHAR
STARTCHAR thorn
ENCODING 254
SWIDTH 579 0
DWIDTH 6 0
BBX 6 7 0 0
BITMAP
40
70
7C
CC
FC
E0
40
ENDCHAR
STARTCHAR ydieresis
ENCODING 255
SWIDTH 400 0
DWIDTH 4 0
BBX 6 10 0 0
BITMAP
2C
64
00
88
5C
58
70
60
60
C0
ENDCHAR
STARTCHAR dotlessi
ENCODING 305
SWIDTH 320 0
DWIDTH 4 0
BBX 2 7 1 0
BITMAP
40
C0
C0
C0
80
80
80
ENDCHAR
STARTCHAR Lslash
ENCODING 321
SWIDTH 632 0
DWIDTH 7 0
BBX 8 8 -1 0
BITMAP
18
18
30
7C
F0
60
7F
3F
ENDCHAR
STARTCHAR lslash
ENCODING 322
SWIDTH 533 0
DWIDTH 6 0
BBX 7 7 -1 0
BITMAP
20
30
30
78
E0
7C
7E
ENDCHAR
STARTCHAR OE
ENCODING 338
SWIDTH 1212 0
DWIDTH 13 0
BBX 14 8 0 0
BITMAP
0C3C
1FF8
3FC0
66F0
E3F0
C780
FFF8
7DF0
ENDCHAR
STARTCHAR oe
ENCODING 339
SWIDTH 1010 0
DWIDTH 11 0
BBX 11 7 0 0
BITMAP
0820
1BE0
7F00
67C0
C780
DEC0
7BE0
ENDCHAR
STARTCHAR Scaron
ENCODING 352
SWIDTH 576 0
DWIDTH 6 0
BBX 8 12 0 0
BITMAP
12
36
1C
00
1E
7F
E0
F8
08
08
78
70
ENDCHAR
STARTCHAR scaron
ENCODING 353
SWIDTH 463 0
DWIDTH 5 0
BBX 6 11 0 0
BITMAP
44
6C
38
00
0C
7C
E0
70
18
30
60
ENDCHAR
STARTCHAR Ydieresis
ENCODING 376
SWIDTH 493 0
DWIDTH 5 0
BBX 7 11 0 0
BITMAP
36
24
00
46
6C
78
78
30
60
60
C0
ENDCHAR
STARTCHAR Zcaron
ENCODING 381
SWIDTH 664 0
DWIDTH 7 0
BBX 8 12 0 0
BITMAP
09
1B
0E
00
3E
3F
0E
1C
70
E0
FE
F8
ENDCHAR
STARTCHAR zcaron
ENCODING 382
SWIDTH 547 0
DWIDTH 6 0
BBX 7 11 0 0
BITMAP
12
36
1C
00
20
7C
1C
38
60
DC
F8
ENDCHAR
STARTCHAR circumflex
ENCODING 710
SWIDTH 754 0
DWIDTH 8 0
BBX 4 3 3 6
BITMAP
40
E0
B0
ENDCHAR
STARTCHAR caron
ENCODING 711
SWIDTH 754 0
DWIDTH 8 0
BBX 4 3 3 6
BITMAP
90
B0
60
ENDCHAR
STARTCHAR breve
ENCODING 728
SWIDTH 754 0
DWIDTH 8 0
BBX 4 3 3 6
BITMAP
90
B0
E0
ENDCHAR
STARTCHAR dotaccent
ENCODING 729
SWIDTH 754 0
DWIDTH 8 0
BBX 2 2 4 6
BITMAP
C0
80
ENDCHAR
STARTCHAR ring
ENCODING 730
SWIDTH 754 0
DWIDTH 8 0
BBX 3 4 3 5
BITMAP
20
60
E0
40
ENDCHAR
STARTCHAR ogonek
ENCODING 731
SWIDTH 754 0
DWIDTH 8 0
BBX 4 3 3 -3
BITMAP
80
C0
70
ENDCHAR
STARTCHAR tilde
ENCODING 732
SWIDTH 754 0
DWIDTH 8 0
BBX 5 2 2 6
BITMAP
78
F8
ENDCHAR
STARTCHAR hungarumlaut
ENCODING 733
SWIDTH 754 0
DWIDTH 8 0
BBX 6 3 2 5
BITMAP
6C
F8
90
ENDCHAR
STARTCHAR endash
ENCODING 8211
SWIDTH 588 0
DWIDTH 6 0
BBX 6 2 0 2
BITMAP
78
FC
ENDCHAR
STARTCHAR emdash
ENCODING 8212
SWIDTH 878 0
DWIDTH 10 0
BBX 9 2 0 2
BITMAP
FF00
7F80
ENDCHAR
STARTCHAR quoteleft
ENCODING 8216
SWIDTH 203 0
DWIDTH 2 0
BBX 3 3 1 5
BITMAP
E0
C0
80
ENDCHAR
STARTCHAR quoteright
ENCODING 8217
SWIDTH 199 0
DWIDTH 2 0
BBX 2 3 1 5
BITMAP
40
C0
C0
ENDCHAR
STARTCHAR quotesinglbase
ENCODING 8218
SWIDTH 204 0
DWIDTH 2 0
BBX 2 4 -1 -2
BITMAP
40
40
C0
80
ENDCHAR
STARTCHAR quotedblleft
ENCODING 8220
SWIDTH 410 0
DWIDTH 5 0
BBX 5 3 1 5
BITMAP
D8
F0
B0
ENDCHAR
STARTCHAR quotedblright
ENCODING 8221
SWIDTH 425 0
DWIDTH 5 0
BBX 5 3 1 5
BITMAP
58
D8
F0
ENDCHAR
STARTCHAR quotedblbase
ENCODING 8222
SWIDTH 430 0
DWIDTH 5 0
BBX 5 4 -1 -2
BITMAP
50
58
D0
B0
ENDCHAR
STARTCHAR bullet
ENCODING 8226
SWIDTH 299 0
DWIDTH 3 0
BBX 3 3 0 2
BITMAP
40
E0
C0
ENDCHAR
STARTCHAR ellipsis
ENCODING 8230
SWIDTH 768 0
DWIDTH 8 0
BBX 8 2 0 0
BITMAP
9B
D2
ENDCHAR
STARTCHAR perthousand
ENCODING 8240
SWIDTH 889 0
DWIDTH 10 0
BBX 10 8 0 0
BITMAP
2200
6600
7400
7800
3480
6D80
5DC0
CD80
ENDCHAR
STARTCHAR guilsinglleft
ENCODING 8249
SWIDTH 322 0
DWIDTH 4 0
BBX 3 5 0 0
BITMAP
20
60
C0
C0
60
ENDCHAR
STARTCHAR guilsinglright
ENCODING 8250
SWIDTH 341 0
DWIDTH 4 0
BBX 3 5 0 0
BITMAP
80
40
20
C0
80
ENDCHAR
STARTCHAR fraction
ENCODING 8260
SWIDTH 541 0
DWIDTH 6 0
BBX 6 8 0 0
BITMAP
04
0C
18
30
20
60
C0
C0
ENDCHAR
STARTCHAR Euro
ENCODING 8364
SWIDTH 565 0
DWIDTH 6 0
BBX 6 7 0 0
BITMAP
08
1C
70
70
F8
78
3C
ENDCHAR
STARTCHAR Delta
ENCODING 8710
SWIDTH 403 0
DWIDTH 4 0
BBX 6 7 0 0
BITMAP
38
7C
30
20
20
60
F0
ENDCHAR
STARTCHAR minus
ENCODING 8722
SWIDTH 548 0
DWIDTH 6 0
BBX 6 2 0 2
BITMAP
F8
FC
ENDCHAR
STARTCHAR approxequal
ENCODING 8776
SWIDTH 323 0
DWIDTH 4 0
BBX 3 8 0 0
BITMAP
20
60
60
60
40
C0
40
40
ENDCHAR
STARTCHAR fi
ENCODING 64257
SWIDTH 810 0
DWIDTH 9 0
BBX 8 7 0 0
BITMAP
0D
7D
E1
63
FB
C3
C3
ENDCHAR
STARTCHAR fl
ENCODING 64258
SWIDTH 1012 0
DWIDTH 11 0
BBX 11 7 0 0
BITMAP
0D00
7D00
E300
6300
FA00
C7C0
C3E0
ENDCHAR
STARTCHAR .notdef
ENCODING -1
SWIDTH 370 0
DWIDTH 4 0
BBX 1 1 0 0
BITMAP
00
ENDCHAR
ENDFONT
